<?xml version="1.0" encoding="utf-8"?>
<!-- Generator: Adobe Illustrator 17.1.0, SVG Export Plug-In . SVG Version: 6.00 Build 0)  -->
<!DOCTYPE svg PUBLIC "-//W3C//DTD SVG 1.1//EN" "http://www.w3.org/Graphics/SVG/1.1/DTD/svg11.dtd">
<svg version="1.1" id="Layer_1" xmlns="http://www.w3.org/2000/svg" xmlns:xlink="http://www.w3.org/1999/xlink" x="0px" y="0px"
	 viewBox="0 0 986.951 204.059" enable-background="new 0 0 986.951 204.059" xml:space="preserve">
<rect x="-15.559" y="-37.339" width="1194.44" height="392.169"/>
<path fill="#FF2B06" d="M42.691,172.459l-6.053-8.724h5.768l3.24,4.807l3.204-4.807h5.59l-6.053,8.617l6.801,9.792h-5.768
	l-3.846-5.804l-3.845,5.804h-5.661L42.691,172.459z"/>
<path fill="#FFFFFF" d="M79.149,163.248H61.168v-3.81h17.981V163.248z M79.149,170.868H61.168v-3.81h17.981V170.868z"/>
<path fill="#FFFFFF" d="M92.927,160.887h-5.056v-4.166h5.056V160.887z M87.871,163.736h5.056v18.408h-5.056V163.736z"/>
<path fill="#FFFFFF" d="M96.202,163.736h4.807v2.564h0.107c1.282-2.065,3.489-3.062,5.626-3.062c5.376,0,6.729,3.026,6.729,7.584
	v11.323h-5.056v-10.397c0-3.026-0.89-4.522-3.24-4.522c-2.742,0-3.917,1.531-3.917,5.27v9.649h-5.056V163.736z"/>
<path fill="#FFFFFF" d="M129.741,179.794h-0.071c-1.175,1.994-3.24,2.848-5.59,2.848c-5.554,0-8.26-4.771-8.26-9.863
	c0-4.949,2.742-9.542,8.154-9.542c2.172,0,4.308,0.926,5.483,2.742h-0.036h0.071v-9.258h5.056v25.423h-4.807V179.794z
	 M125.326,167.047c-3.311,0-4.451,2.848-4.451,5.875c0,2.884,1.318,5.91,4.451,5.91c3.347,0,4.344-2.919,4.344-5.946
	C129.67,169.895,128.602,167.047,125.326,167.047z"/>
<path fill="#FFFFFF" d="M141.81,174.168c0.142,3.205,1.709,4.664,4.522,4.664c2.029,0,3.667-1.246,3.988-2.385h4.451
	c-1.425,4.344-4.451,6.195-8.617,6.195c-5.804,0-9.4-3.988-9.4-9.685c0-5.519,3.81-9.721,9.4-9.721c6.266,0,9.293,5.27,8.937,10.931
	H141.81z M150.035,170.964c-0.463-2.564-1.567-3.917-4.024-3.917c-3.205,0-4.13,2.492-4.201,3.917H150.035z"/>
<path fill="#FFFFFF" d="M157.368,163.736h4.807v2.35h0.071c1.21-1.958,3.204-2.849,5.483-2.849c5.768,0,8.367,4.665,8.367,9.898
	c0,4.914-2.706,9.507-8.083,9.507c-2.208,0-4.308-0.961-5.519-2.777h-0.071v8.759h-5.056V163.736z M171.04,172.993
	c0-2.92-1.175-5.946-4.415-5.946c-3.311,0-4.379,2.955-4.379,5.946c0,2.991,1.139,5.839,4.415,5.839
	C169.973,178.832,171.04,175.984,171.04,172.993z"/>
<path fill="#FFFFFF" d="M182.575,174.168c0.142,3.205,1.709,4.664,4.522,4.664c2.029,0,3.667-1.246,3.988-2.385h4.451
	c-1.424,4.344-4.451,6.195-8.617,6.195c-5.804,0-9.4-3.988-9.4-9.685c0-5.519,3.81-9.721,9.4-9.721c6.266,0,9.293,5.27,8.937,10.931
	H182.575z M190.8,170.964c-0.463-2.564-1.567-3.917-4.024-3.917c-3.204,0-4.13,2.492-4.201,3.917H190.8z"/>
<path fill="#FFFFFF" d="M198.133,163.736h4.807v2.564h0.107c1.282-2.065,3.489-3.062,5.626-3.062c5.376,0,6.729,3.026,6.729,7.584
	v11.323h-5.056v-10.397c0-3.026-0.89-4.522-3.24-4.522c-2.742,0-3.917,1.531-3.917,5.27v9.649h-5.056V163.736z"/>
<path fill="#FFFFFF" d="M231.672,179.794h-0.071c-1.175,1.994-3.24,2.848-5.59,2.848c-5.554,0-8.26-4.771-8.26-9.863
	c0-4.949,2.742-9.542,8.154-9.542c2.172,0,4.308,0.926,5.483,2.742h-0.036h0.071v-9.258h5.056v25.423h-4.807V179.794z
	 M227.257,167.047c-3.311,0-4.451,2.848-4.451,5.875c0,2.884,1.317,5.91,4.451,5.91c3.347,0,4.344-2.919,4.344-5.946
	C231.601,169.895,230.533,167.047,227.257,167.047z"/>
<path fill="#FFFFFF" d="M243.741,174.168c0.142,3.205,1.709,4.664,4.522,4.664c2.029,0,3.667-1.246,3.988-2.385h4.451
	c-1.424,4.344-4.451,6.195-8.617,6.195c-5.804,0-9.4-3.988-9.4-9.685c0-5.519,3.81-9.721,9.4-9.721c6.266,0,9.293,5.27,8.937,10.931
	H243.741z M251.966,170.964c-0.463-2.564-1.567-3.917-4.024-3.917c-3.204,0-4.13,2.492-4.201,3.917H251.966z"/>
<path fill="#FFFFFF" d="M259.299,163.736h4.807v2.564h0.107c1.282-2.065,3.489-3.062,5.626-3.062c5.376,0,6.729,3.026,6.729,7.584
	v11.323h-5.056v-10.397c0-3.026-0.89-4.522-3.24-4.522c-2.742,0-3.917,1.531-3.917,5.27v9.649h-5.056V163.736z"/>
<path fill="#FFFFFF" d="M286.109,163.736h3.703v3.383h-3.703v9.115c0,1.709,0.427,2.136,2.136,2.136
	c0.534,0,1.032-0.036,1.567-0.142v3.952c-0.855,0.143-1.959,0.178-2.955,0.178c-3.098,0-5.804-0.712-5.804-4.379v-10.86h-3.062
	v-3.383h3.062v-5.519h5.056V163.736z"/>
<path fill="#FFFFFF" d="M291.662,156.721h5.056v25.423h-5.056V156.721z"/>
<path fill="#FFFFFF" d="M309.073,184.458c-1.104,2.956-2.848,4.166-6.338,4.166c-1.032,0-2.065-0.071-3.098-0.178v-4.166
	c0.961,0.071,1.958,0.214,2.955,0.178c1.744-0.178,2.314-1.994,1.744-3.454l-6.48-17.269h5.412l4.166,12.605h0.071l4.024-12.605
	h5.234L309.073,184.458z"/>
<path fill="#FFFFFF" d="M335.882,163.237c5.804,0,9.542,3.845,9.542,9.721c0,5.839-3.739,9.685-9.542,9.685
	c-5.768,0-9.507-3.845-9.507-9.685C326.375,167.083,330.114,163.237,335.882,163.237z M335.882,178.832
	c3.454,0,4.486-2.955,4.486-5.875c0-2.955-1.032-5.911-4.486-5.911c-3.418,0-4.451,2.955-4.451,5.911
	C331.431,175.877,332.464,178.832,335.882,178.832z"/>
<path fill="#FFFFFF" d="M347.274,163.736h4.807v3.418h0.071c0.926-2.314,3.418-3.917,5.875-3.917c0.356,0,0.783,0.071,1.103,0.178
	v4.7c-0.463-0.107-1.21-0.178-1.816-0.178c-3.703,0-4.984,2.67-4.984,5.911v8.296h-5.056V163.736z"/>
<path fill="#FFFFFF" d="M378.108,180.969c0,3.026-1.068,8.153-9.542,8.153c-3.632,0-7.869-1.709-8.118-5.91h5.02
	c0.463,1.887,1.994,2.528,3.774,2.528c2.813,0,4.095-1.923,4.059-4.558v-2.421h-0.071c-1.104,1.923-3.312,2.849-5.519,2.849
	c-5.519,0-7.869-4.202-7.869-9.258c0-4.771,2.742-9.115,7.905-9.115c2.421,0,4.272,0.819,5.483,2.955h0.071v-2.457h4.807V180.969z
	 M373.301,172.708c0-2.991-1.033-5.661-4.308-5.661c-2.848,0-4.095,2.492-4.095,5.234c0,2.635,0.997,5.519,4.095,5.519
	C371.877,177.8,373.301,175.343,373.301,172.708z"/>
<path fill="#FFFFFF" d="M380.527,169.397c0.285-4.736,4.522-6.16,8.652-6.16c3.668,0,8.083,0.819,8.083,5.234v9.578
	c0,1.673,0.178,3.347,0.641,4.095h-5.127c-0.178-0.57-0.32-1.175-0.356-1.78c-1.602,1.674-3.952,2.279-6.196,2.279
	c-3.489,0-6.266-1.744-6.266-5.519c0-4.166,3.133-5.163,6.266-5.59c3.098-0.463,5.982-0.356,5.982-2.421
	c0-2.172-1.496-2.492-3.276-2.492c-1.923,0-3.169,0.783-3.347,2.777H380.527z M392.206,173.135
	c-0.855,0.748-2.635,0.784-4.202,1.068c-1.567,0.321-2.991,0.855-2.991,2.706c0,1.887,1.46,2.35,3.098,2.35
	c3.952,0,4.095-3.133,4.095-4.237V173.135z"/>
<path fill="#FFFFFF" d="M400.465,163.736h4.807v2.564h0.107c1.282-2.065,3.489-3.062,5.626-3.062c5.376,0,6.729,3.026,6.729,7.584
	v11.323h-5.056v-10.397c0-3.026-0.89-4.522-3.24-4.522c-2.742,0-3.917,1.531-3.917,5.27v9.649h-5.056V163.736z"/>
<path fill="#FFFFFF" d="M425.352,160.887h-5.056v-4.166h5.056V160.887z M420.296,163.736h5.056v18.408h-5.056V163.736z"/>
<path fill="#FFFFFF" d="M427.487,178.334l9.578-10.788H428.2v-3.81h15.524v3.81l-9.577,10.788H444.4v3.81h-16.913V178.334z"/>
<path fill="#FFFFFF" d="M450.559,174.168c0.142,3.205,1.709,4.664,4.522,4.664c2.03,0,3.668-1.246,3.988-2.385h4.451
	c-1.424,4.344-4.451,6.195-8.617,6.195c-5.803,0-9.399-3.988-9.399-9.685c0-5.519,3.81-9.721,9.399-9.721
	c6.267,0,9.293,5.27,8.938,10.931H450.559z M458.784,170.964c-0.462-2.564-1.566-3.917-4.023-3.917c-3.205,0-4.13,2.492-4.201,3.917
	H458.784z"/>
<path fill="#FFFFFF" d="M479.257,179.794h-0.072c-1.175,1.994-3.24,2.848-5.59,2.848c-5.555,0-8.261-4.771-8.261-9.863
	c0-4.949,2.742-9.542,8.154-9.542c2.172,0,4.308,0.926,5.483,2.742h-0.036h0.071v-9.258h5.057v25.423h-4.807V179.794z
	 M474.841,167.047c-3.311,0-4.45,2.848-4.45,5.875c0,2.884,1.317,5.91,4.45,5.91c3.347,0,4.344-2.919,4.344-5.946
	C479.185,169.895,478.117,167.047,474.841,167.047z"/>
<path fill="#FFFFFF" d="M502.504,161.421h-7.619v-4.7h20.829v4.7h-7.62v20.723h-5.59V161.421z"/>
<path fill="#FFFFFF" d="M517.92,156.721h19.014v4.7H523.51v5.448h12.32v4.344h-12.32v6.231h13.708v4.7H517.92V156.721z"/>
<path fill="#FFFFFF" d="M539.567,156.721h10.966c6.587,0,11.536,4.131,11.536,12.569c0,7.37-3.774,12.854-11.536,12.854h-10.966
	V156.721z M545.157,177.444h4.985c3.24,0,6.338-1.994,6.338-7.619c0-5.127-1.78-8.403-7.336-8.403h-3.987V177.444z"/>
<path fill="#FFFFFF" d="M578.054,174.168c0.142,3.205,1.709,4.664,4.522,4.664c2.03,0,3.668-1.246,3.988-2.385h4.45
	c-1.424,4.344-4.45,6.195-8.617,6.195c-5.804,0-9.399-3.988-9.399-9.685c0-5.519,3.81-9.721,9.399-9.721
	c6.267,0,9.293,5.27,8.938,10.931H578.054z M586.279,170.964c-0.462-2.564-1.566-3.917-4.023-3.917c-3.204,0-4.13,2.492-4.201,3.917
	H586.279z"/>
<path fill="#FFFFFF" d="M603.084,182.144h-5.626l-6.302-18.408h5.305l3.881,12.569h0.071l3.881-12.569h5.021L603.084,182.144z"/>
<path fill="#FFFFFF" d="M614.156,174.168c0.142,3.205,1.709,4.664,4.522,4.664c2.03,0,3.668-1.246,3.988-2.385h4.451
	c-1.424,4.344-4.451,6.195-8.617,6.195c-5.804,0-9.399-3.988-9.399-9.685c0-5.519,3.81-9.721,9.399-9.721
	c6.267,0,9.293,5.27,8.937,10.931H614.156z M622.381,170.964c-0.462-2.564-1.566-3.917-4.023-3.917c-3.205,0-4.13,2.492-4.201,3.917
	H622.381z"/>
<path fill="#FFFFFF" d="M629.714,163.736h4.807v2.564h0.107c1.282-2.065,3.49-3.062,5.625-3.062c5.377,0,6.73,3.026,6.73,7.584
	v11.323h-5.056v-10.397c0-3.026-0.891-4.522-3.24-4.522c-2.742,0-3.917,1.531-3.917,5.27v9.649h-5.056V163.736z"/>
<path fill="#FFFFFF" d="M656.524,163.736h3.703v3.383h-3.703v9.115c0,1.709,0.427,2.136,2.137,2.136
	c0.534,0,1.033-0.036,1.566-0.142v3.952c-0.854,0.143-1.958,0.178-2.955,0.178c-3.097,0-5.804-0.712-5.804-4.379v-10.86h-3.062
	v-3.383h3.062v-5.519h5.056V163.736z"/>
<g>
	<g>
		<path fill="#FF2B06" d="M57.93,54.613H34.208V32.918h73.499v21.696H83.993v62.952H57.93V54.613z"/>
		<path fill="#FF2B06" d="M111.758,32.918h71.349v21.696h-45.269v10.548h45.269v20.161h-45.269v10.549h45.281v21.694h-71.361V32.918
			z"/>
		<path fill="#FF2B06" d="M187.496,32.918h42.798c28.211,0,38.181,20.866,38.181,42.2c0,25.971-13.752,42.448-43.274,42.448h-37.705
			V32.918z M213.575,95.871h10.199c16.246,0,18.621-13.164,18.621-21.116c0-5.325-1.669-20.142-20.521-20.142h-8.3V95.871z"/>
	</g>
	<g>
		<g>
			<path fill="#FF2B06" d="M305.949,84.946l-7.956-13.193l-7.758,13.193h-19.108l18.14-26.675L271.8,32.755h19.115l7.079,12.612
				l7.282-12.612h19.109l-17.462,25.516l18.14,26.675H305.949z"/>
		</g>
	</g>
</g>
<text transform="matrix(1 0 0 1 336.2352 117.4268)" fill="#FFFFFF" font-family="'Helvetica'" font-size="117.5165">Tegucigalpa</text>
</svg>
